HIERARCHY
ROOT Hips
{
	OFFSET 0.000000 0.000000 0.000000
	CHANNELS 6 Xposition Yposition Zposition Zrotation Yrotation Xrotation 
	JOINT LHipJoint
	{
		OFFSET 0.000000 0.000000 0.000000
		CHANNELS 3 Zrotation Yrotation Xrotation
		JOINT LeftUpLeg
		{
			OFFSET 1.363060 -1.794630 0.839290
			CHANNELS 3 Zrotation Yrotation Xrotation
			JOINT LeftLeg
			{
				OFFSET 2.448110 -6.726130 0.000000
				CHANNELS 3 Zrotation Yrotation Xrotation
				JOINT LeftFoot
				{
					OFFSET 2.562200 -7.039590 0.000000
					CHANNELS 3 Zrotation Yrotation Xrotation
					JOINT LeftToeBase
					{
						OFFSET 0.157640 -0.433110 2.322550
						CHANNELS 3 Zrotation Yrotation Xrotation
						End Site
						{
							OFFSET 0.000000 0.000000 0.000000
						}
					}
				}
			}
		}
	}
	JOINT RHipJoint
	{
		OFFSET 0.000000 0.000000 0.000000
		CHANNELS 3 Zrotation Yrotation Xrotation
		JOINT RightUpLeg
		{
			OFFSET -1.305520 -1.794630 0.839290
			CHANNELS 3 Zrotation Yrotation Xrotation
			JOINT RightLeg
			{
				OFFSET -2.542530 -6.985550 0.000000
				CHANNELS 3 Zrotation Yrotation Xrotation
				JOINT RightFoot
				{
					OFFSET -2.568260 -7.056230 0.000000
					CHANNELS 3 Zrotation Yrotation Xrotation
					JOINT RightToeBase
					{
						OFFSET -0.164730 -0.452590 2.363150
						CHANNELS 3 Zrotation Yrotation Xrotation
						End Site
						{
							OFFSET 0.000000 0.000000 0.000000
						}
					}
				}
			}
		}
	}
	JOINT LowerBack
	{
		OFFSET 0.000000 0.000000 0.000000
		CHANNELS 3 Zrotation Yrotation Xrotation
		JOINT Spine
		{
			OFFSET 0.028270 2.035590 -0.193380
			CHANNELS 3 Zrotation Yrotation Xrotation
			JOINT Spine1
			{
				OFFSET 0.056720 2.048850 -0.042750
				CHANNELS 3 Zrotation Yrotation Xrotation
				JOINT Neck
				{
					OFFSET 0.000000 0.000000 0.000000
					CHANNELS 3 Zrotation Yrotation Xrotation
					JOINT Neck1
					{
						OFFSET -0.054170 1.746240 0.172020
						CHANNELS 3 Zrotation Yrotation Xrotation
						JOINT Head
						{
							OFFSET 0.104070 1.761360 -0.123970
							CHANNELS 3 Zrotation Yrotation Xrotation
							End Site
							{
								OFFSET 0.000000 0.000000 0.000000
							}
						}
					}
				}
				JOINT LeftShoulder
				{
					OFFSET 0.000000 0.000000 0.000000
					CHANNELS 3 Zrotation Yrotation Xrotation
					JOINT LeftArm
					{
						OFFSET 3.362410 1.200890 -0.311210
						CHANNELS 3 Zrotation Yrotation Xrotation
						JOINT LeftForeArm
						{
							OFFSET 4.983000 -0.000000 -0.000000
							CHANNELS 3 Zrotation Yrotation Xrotation
							JOINT LeftHand
							{
								OFFSET 3.483560 -0.000000 -0.000000
								CHANNELS 3 Zrotation Yrotation Xrotation
								JOINT LeftFingerBase
								{
									OFFSET 0.000000 0.000000 0.000000
									CHANNELS 3 Zrotation Yrotation Xrotation
									JOINT LeftHandIndex1
									{
										OFFSET 0.715260 -0.000000 -0.000000
										CHANNELS 3 Zrotation Yrotation Xrotation
										End Site
										{
											OFFSET 0.000000 0.000000 0.000000
										}
									}
								}
								JOINT LThumb
								{
									OFFSET 0.000000 0.000000 0.000000
									CHANNELS 3 Zrotation Yrotation Xrotation
									End Site
									{
										OFFSET 0.000000 0.000000 0.000000
									}
								}
							}
						}
					}
				}
				JOINT RightShoulder
				{
					OFFSET 0.000000 0.000000 0.000000
					CHANNELS 3 Zrotation Yrotation Xrotation
					JOINT RightArm
					{
						OFFSET -3.136600 1.374050 -0.404650
						CHANNELS 3 Zrotation Yrotation Xrotation
						JOINT RightForeArm
						{
							OFFSET -5.241900 -0.000000 -0.000000
							CHANNELS 3 Zrotation Yrotation Xrotation
							JOINT RightHand
							{
								OFFSET -3.444170 -0.000000 -0.000000
								CHANNELS 3 Zrotation Yrotation Xrotation
								JOINT RightFingerBase
								{
									OFFSET 0.000000 0.000000 0.000000
									CHANNELS 3 Zrotation Yrotation Xrotation
									JOINT RightHandIndex1
									{
										OFFSET -0.622530 -0.000000 -0.000000
										CHANNELS 3 Zrotation Yrotation Xrotation
										End Site
										{
											OFFSET 0.000000 0.000000 0.000000
										}
									}
								}
								JOINT RThumb
								{
									OFFSET 0.000000 0.000000 0.000000
									CHANNELS 3 Zrotation Yrotation Xrotation
									End Site
									{
										OFFSET 0.000000 0.000000 0.000000
									}
								}
							}
						}
					}
				}
			}
		}
	}
}
MOTION
Frames: 10
Frame Time: 0.008333
9.650720 16.239745 -18.563218 -1.540784 -72.657891 5.650334 6.171337 0.236718 -1.183057 -10.776194 -2.264750 -33.995983 7.160586 18.594108 53.722507 2.986989 -3.255485 4.598777 0.886200 -6.000800 -16.786900 -7.453943 -1.193217 -0.597184 16.323635 -0.403008 -29.263027 -7.916707 -17.667937 54.863257 -0.123065 -3.468076 -9.118704 -0.797500 5.699900 -15.916200 -1.673393 2.204910 11.513637 -0.342633 2.517607 2.718436 -0.435042 1.725330 -5.398526 -4.863635 3.854423 -4.087903 4.418305 4.227077 5.516189 -1.085600 2.137800 1.681700 -3.557541 -10.899291 0.462221 -69.022482 -27.308288 23.435115 29.969173 -32.030457 -13.436921 -1.374430 -2.893354 -75.284175 20.883994 -17.073516 -7.581000 -7.125000 0.000000 0.000000 -2.570600 11.090800 2.030200 7.510249 11.034308 1.450254 65.566072 23.897466 26.141715 -31.264489 33.160371 -15.479454 -2.331833 5.560581 -61.629926 -18.954334 -32.351799 13.947600 7.125000 0.000000 0.000000 15.729900 -68.088500 -8.807700 
9.642150 16.197415 -18.555379 -1.955854 -72.743010 5.854119 6.233848 0.267451 -1.186707 -10.691639 -2.100299 -34.068678 7.366486 18.700636 54.299306 3.110554 -3.617613 4.453653 0.781100 -5.642400 -15.750200 -7.496205 -1.205883 -0.592390 16.446564 -0.350054 -29.266216 -8.081836 -17.778337 55.388876 -0.209425 -3.261694 -9.451622 -0.717700 5.413800 -15.092700 -1.509472 2.294594 11.617057 -0.370250 2.660970 2.771167 -0.634290 1.793988 -5.367918 -4.774802 3.917643 -3.911542 4.430227 4.263873 5.295380 -1.106100 2.148400 1.550600 -3.543970 -11.068604 0.478467 -69.762278 -28.102293 23.604494 29.769870 -31.717915 -13.193364 -1.562207 -2.980912 -76.399784 22.371655 -17.974462 -8.634000 -7.125000 0.000000 0.000000 -1.619200 9.680700 1.324400 7.525803 11.162038 1.554460 65.820068 25.067267 26.125162 -30.321292 32.251213 -14.697229 -2.338910 5.661078 -62.197481 -19.158399 -32.393329 14.174300 7.125000 0.000000 0.000000 15.345500 -68.216600 -8.632900 
9.631802 16.166059 -18.549944 -1.656753 -72.848005 5.466480 6.274845 0.279908 -1.177018 -10.798005 -2.106106 -34.117126 7.549145 18.810456 54.826959 3.184590 -3.827299 4.011585 0.731400 -5.464200 -15.237400 -7.535096 -1.223058 -0.599740 16.358762 -0.476262 -29.451153 -8.253528 -17.886700 55.911685 -0.183164 -3.372069 -9.675605 -0.834300 5.827000 -16.283200 -1.635793 2.392615 11.595621 -0.419833 2.777669 2.820467 -0.688074 1.857071 -5.273163 -4.969215 3.880976 -3.956481 4.698327 4.200786 5.231006 -0.971700 2.118000 1.510400 -3.523728 -11.196295 0.475922 -70.566276 -28.759681 24.197166 29.698118 -31.543097 -13.065602 -1.896917 -3.056421 -78.340096 24.438904 -20.466485 -10.835700 -7.125000 0.000000 0.000000 -0.549000 6.215700 0.486300 7.513386 11.278036 1.657025 66.251624 26.225205 25.711934 -29.597075 31.483309 -14.091423 -2.330948 5.743976 -62.287381 -19.164540 -32.493667 14.265800 7.125000 0.000000 0.000000 15.358800 -68.346100 -8.685300 
9.622813 16.133449 -18.548480 -1.689109 -72.999268 5.346938 6.319193 0.304591 -1.169641 -10.779704 -2.048342 -34.135155 7.731991 18.904551 55.325205 3.202967 -3.880595 3.607637 0.811000 -5.746800 -16.051500 -7.574335 -1.238945 -0.599207 16.382775 -0.544806 -29.575817 -8.423204 -17.994599 56.437608 -0.178080 -3.430142 -9.954922 -0.948700 6.203000 -17.374600 -1.743833 2.410993 11.661920 -0.464277 2.790719 2.867954 -0.713475 1.865588 -5.199875 -4.983215 3.822075 -4.166597 4.794921 4.145124 5.266715 -0.931600 2.093400 1.555200 -3.493965 -11.290873 0.469176 -71.150100 -29.281130 24.219388 29.711355 -31.462549 -13.031946 -2.002242 -3.169191 -79.416936 25.590024 -21.004061 -11.722500 -7.125000 0.000000 0.000000 0.151000 5.256300 -0.136600 7.501228 11.395902 1.765113 66.861249 27.390620 25.339573 -28.960538 30.765828 -13.553078 -2.309076 5.823713 -62.245849 -19.188139 -32.566309 14.354600 7.125000 0.000000 0.000000 15.324200 -68.449300 -8.701000 
9.612989 16.098330 -18.541478 -1.837877 -73.115311 5.378595 6.372580 0.329554 -1.170325 -10.747991 -1.894961 -34.235068 7.910124 18.994286 55.812150 3.278695 -4.095909 3.347621 0.844900 -5.862800 -16.386800 -7.614205 -1.252228 -0.598696 16.406041 -0.614510 -29.714069 -8.587863 -18.097605 56.944856 -0.206595 -3.397618 -10.268915 -1.022200 6.431900 -18.042900 -1.762739 2.442626 11.653071 -0.481397 2.833741 2.906705 -0.759234 1.885338 -5.119757 -4.853236 3.794709 -4.170743 4.653978 4.106534 5.195196 -1.019600 2.068900 1.524800 -3.469581 -11.407678 0.477774 -71.858988 -29.943399 23.655292 29.567666 -31.214163 -12.863699 -1.818326 -3.252494 -78.891233 25.147078 -18.903336 -10.417500 -7.125000 0.000000 0.000000 0.213200 7.847400 -0.182100 7.505413 11.506587 1.867179 67.344110 28.359194 25.020579 -28.353904 30.088593 -13.050358 -2.298161 5.878012 -62.405155 -19.116750 -32.496562 14.325600 7.125000 0.000000 0.000000 15.252200 -68.377100 -8.634600 
9.600446 16.066974 -18.531339 -1.769403 -73.188220 5.269613 6.423960 0.344958 -1.173486 -10.801729 -1.752322 -34.379211 8.080001 19.086795 56.291033 3.420170 -4.488495 3.093741 0.767800 -5.595200 -15.614400 -7.651217 -1.260609 -0.602685 16.329999 -0.623199 -29.857566 -8.736089 -18.191500 57.395602 -0.216135 -3.403927 -10.476923 -1.123300 6.732300 -18.924600 -1.720603 2.527044 11.497228 -0.532978 2.960387 2.965030 -0.928158 1.941039 -4.920241 -4.720482 3.744793 -4.180962 4.557678 4.031440 5.090197 -1.092400 2.025500 1.475300 -3.444521 -11.535161 0.496381 -72.579681 -30.748425 23.323934 29.335202 -30.868602 -12.615268 -1.725819 -3.270593 -78.123690 24.829035 -17.585480 -9.581400 -7.125000 0.000000 0.000000 0.190800 9.480800 -0.156800 7.499269 11.617569 1.977050 67.707511 29.322296 24.579207 -27.815378 29.462866 -12.610706 -2.309392 5.910139 -62.696773 -18.875340 -32.418102 14.171600 7.125000 0.000000 0.000000 15.418300 -68.246600 -8.685000 
9.592294 16.031960 -18.529458 -1.920995 -73.207010 5.244304 6.467016 0.360890 -1.170039 -10.732673 -1.841388 -34.381865 8.253795 19.184123 56.772435 3.454732 -4.598373 2.822179 0.766400 -5.590400 -15.600400 -7.680356 -1.269938 -0.599127 16.339902 -0.518078 -29.802719 -8.865131 -18.267616 57.796487 -0.169334 -3.554884 -10.572118 -1.328900 7.300300 -20.608000 -1.627031 2.576732 11.577539 -0.580608 3.041766 3.005098 -1.103459 1.980664 -4.876163 -4.788733 3.707488 -4.211157 4.665831 3.974749 5.028952 -1.039900 1.996000 1.444800 -3.418464 -11.611943 0.492519 -73.232061 -31.175856 23.566106 29.401698 -30.851377 -12.627399 -1.829504 -3.304732 -78.828390 25.516191 -18.442518 -10.361500 -7.125000 0.000000 0.000000 0.542800 8.280400 -0.459000 7.479617 11.688781 2.069214 68.064899 30.133186 24.408955 -27.373842 28.948242 -12.269450 -2.306183 5.994549 -63.087763 -19.297072 -32.526792 14.546900 7.125000 0.000000 0.000000 14.841300 -68.486000 -8.434400 
9.581737 16.003635 -18.529040 -1.985807 -73.318938 5.183713 6.505658 0.369100 -1.167802 -10.672619 -1.985537 -34.384878 8.427137 19.284112 57.239006 3.389911 -4.414532 2.337431 0.868300 -5.941400 -16.614600 -7.707035 -1.276768 -0.590951 16.354283 -0.353287 -29.768640 -8.970834 -18.338578 58.134631 -0.079047 -3.843611 -10.701140 -1.538300 7.829600 -22.197800 -1.600427 2.664763 11.627436 -0.595768 3.159655 2.992715 -1.208565 2.049099 -4.973634 -4.841074 3.740723 -3.864132 4.611916 3.958703 4.772742 -1.061200 1.975000 1.274100 -3.399754 -11.671650 0.481498 -74.231699 -31.340300 23.714284 29.604639 -30.991518 -12.756116 -1.851219 -3.320670 -79.261155 25.684922 -18.969070 -10.719800 -7.125000 0.000000 0.000000 0.586200 7.630900 -0.503200 7.464596 11.698898 2.123621 68.453934 30.585799 24.294185 -27.055857 28.595351 -12.038140 -2.285714 6.099745 -63.391622 -20.128065 -32.708345 15.230600 7.125000 0.000000 0.000000 13.760500 -68.911300 -7.942700 
9.567732 15.980955 -18.521201 -2.358028 -73.340602 5.518884 6.554811 0.373463 -1.174455 -10.569376 -2.097945 -34.492998 8.595844 19.387095 57.684929 3.428259 -4.490038 1.835581 0.931600 -6.148400 -17.215500 -7.735295 -1.283091 -0.586378 16.448065 -0.403224 -29.867346 -9.078429 -18.403786 58.466134 -0.155984 -3.659941 -10.948385 -1.373000 7.415400 -20.952000 -1.424620 2.635819 11.455205 -0.593313 3.143449 3.005683 -1.327778 2.042065 -4.864910 -4.654963 3.791600 -3.676565 4.320369 4.000485 4.594860 -1.217600 1.983400 1.171600 -3.362175 -11.722463 0.475418 -75.116510 -31.569136 23.432282 29.788252 -31.107303 -12.867339 -1.888494 -3.316817 -78.864754 26.077988 -19.270339 -11.047300 -7.125000 0.000000 0.000000 0.804300 7.221600 -0.696900 7.448599 11.726056 2.203216 68.898261 31.255644 24.328384 -26.767228 28.235007 -11.811237 -2.297328 6.148082 -63.662694 -20.298558 -32.804780 15.414400 7.125000 0.000000 0.000000 13.561700 -69.067500 -7.874000 
9.557802 15.953988 -18.520992 -3.347173 -73.254300 6.364530 6.607252 0.402818 -1.181660 -10.247646 -2.080517 -34.516950 8.746755 19.451789 58.058582 3.590266 -4.923152 1.726893 0.871400 -5.951800 -16.644600 -7.765611 -1.288614 -0.578942 16.778497 -0.502959 -29.902493 -9.191555 -18.468387 58.823866 -0.308603 -3.277681 -11.329453 -1.149300 6.807000 -19.144800 -1.181068 2.516748 11.427839 -0.585415 3.019159 3.056167 -1.433628 1.969413 -4.705906 -4.266075 3.832796 -3.940495 4.153548 4.098726 4.757686 -1.356100 2.039900 1.298300 -3.297842 -11.729096 0.466644 -75.496549 -31.813539 23.239000 30.069697 -31.312109 -13.070932 -1.999302 -3.343829 -78.746210 27.179140 -20.009712 -11.980700 -7.125000 0.000000 0.000000 1.419500 6.099900 -1.261000 7.423792 11.783741 2.288473 69.362927 31.978629 24.701977 -26.630185 28.014371 -11.695198 -2.348362 6.165556 -64.172355 -20.310603 -32.940013 15.492300 7.125000 0.000000 0.000000 13.659000 -69.215100 -7.976400 
